<svg width="600" height="400" viewBox="0 0 600 400" fill="none" xmlns="http://www.w3.org/2000/svg">
  <rect width="600" height="400" fill="#F8F9FA"/>
  <rect x="50" y="50" width="500" height="300" rx="8" fill="white" stroke="#E5E7EB" stroke-width="2"/>
  <rect x="80" y="80" width="140" height="100" rx="4" fill="#3B82F6" opacity="0.1" stroke="#3B82F6"/>
  <rect x="90" y="90" width="120" height="80" rx="2" fill="white" stroke="#3B82F6"/>
  <rect x="100" y="100" width="100" height="10" rx="2" fill="#3B82F6" opacity="0.3"/>
  <rect x="100" y="120" width="80" height="10" rx="2" fill="#3B82F6" opacity="0.3"/>
  <rect x="240" y="80" width="140" height="100" rx="4" fill="#10B981" opacity="0.1" stroke="#10B981"/>
  <rect x="250" y="90" width="120" height="80" rx="2" fill="white" stroke="#10B981"/>
  <rect x="260" y="100" width="100" height="10" rx="2" fill="#10B981" opacity="0.3"/>
  <rect x="260" y="120" width="80" height="10" rx="2" fill="#10B981" opacity="0.3"/>
  <rect x="400" y="80" width="140" height="100" rx="4" fill="#F59E0B" opacity="0.1" stroke="#F59E0B"/>
  <rect x="410" y="90" width="120" height="80" rx="2" fill="white" stroke="#F59E0B"/>
  <rect x="420" y="100" width="100" height="10" rx="2" fill="#F59E0B" opacity="0.3"/>
  <rect x="420" y="120" width="80" height="10" rx="2" fill="#F59E0B" opacity="0.3"/>
  <text x="300" y="250" font-family="Arial" font-size="18" font-weight="bold" fill="#1F2937" text-anchor="middle">Batch Processing</text>
  <text x="300" y="280" font-family="Arial" font-size="14" fill="#6B7280" text-anchor="middle">Generate 1000+ labels in seconds</text>
</svg>
