<svg width="1200" height="800" viewBox="0 0 1200 800" fill="none" xmlns="http://www.w3.org/2000/svg">
  <rect width="1200" height="800" fill="#F8F9FA"/>
  <rect x="50" y="50" width="1100" height="700" rx="12" fill="white" stroke="#E5E7EB" stroke-width="2"/>
  <rect x="70" y="70" width="200" height="660" fill="#F3F4F6"/>
  <rect x="90" y="90" width="160" height="40" rx="8" fill="#3B82F6"/>
  <rect x="90" y="150" width="160" height="30" rx="6" fill="#E5E7EB"/>
  <rect x="90" y="190" width="160" height="30" rx="6" fill="#E5E7EB"/>
  <rect x="90" y="230" width="160" height="30" rx="6" fill="#E5E7EB"/>
  <rect x="300" y="70" width="820" height="660" fill="white"/>
  <rect x="320" y="90" width="780" height="60" rx="8" fill="#F9FAFB" stroke="#E5E7EB"/>
  <rect x="320" y="170" width="380" height="250" rx="8" fill="#F9FAFB" stroke="#E5E7EB"/>
  <rect x="340" y="190" width="340" height="200" rx="4" fill="#3B82F6" opacity="0.1"/>
  <rect x="720" y="170" width="400" height="250" rx="8" fill="#F9FAFB" stroke="#E5E7EB"/>
  <rect x="740" y="190" width="360" height="200" rx="4" fill="#10B981" opacity="0.1"/>
  <text x="600" y="500" font-family="Arial" font-size="24" font-weight="bold" fill="#1F2937" text-anchor="middle">LabelPro Dashboard</text>
</svg>
