<svg width="400" height="600" viewBox="0 0 400 600" fill="none" xmlns="http://www.w3.org/2000/svg">
  <rect width="400" height="600" fill="white" stroke="#E5E7EB" stroke-width="2"/>
  <rect x="20" y="20" width="360" height="80" rx="4" fill="#3B82F6" opacity="0.1"/>
  <text x="200" y="65" font-family="Arial" font-size="24" font-weight="bold" fill="#1F2937" text-anchor="middle">LABEL TEMPLATE</text>
  <rect x="20" y="120" width="150" height="150" rx="4" fill="#000000"/>
  <rect x="30" y="130" width="15" height="130" fill="white"/>
  <rect x="50" y="130" width="8" height="130" fill="white"/>
  <rect x="63" y="130" width="20" height="130" fill="white"/>
  <rect x="88" y="130" width="12" height="130" fill="white"/>
  <rect x="105" y="130" width="15" height="130" fill="white"/>
  <rect x="125" y="130" width="8" height="130" fill="white"/>
  <rect x="138" y="130" width="20" height="130" fill="white"/>
  <rect x="190" y="120" width="190" height="40" rx="4" fill="#E5E7EB"/>
  <rect x="190" y="170" width="190" height="40" rx="4" fill="#E5E7EB"/>
  <rect x="190" y="220" width="190" height="40" rx="4" fill="#E5E7EB"/>
  <rect x="20" y="290" width="360" height="40" rx="4" fill="#F3F4F6"/>
  <rect x="20" y="350" width="360" height="40" rx="4" fill="#F3F4F6"/>
  <rect x="20" y="410" width="360" height="40" rx="4" fill="#F3F4F6"/>
  <rect x="20" y="470" width="360" height="100" rx="4" fill="#F9FAFB" stroke="#E5E7EB"/>
</svg>
